<?xml version="1.0" encoding="UTF-8"?>
<svg id="OBJECT" xmlns="http://www.w3.org/2000/svg" xmlns:xlink="http://www.w3.org/1999/xlink" viewBox="0 0 2840.89 2149.76">
  <defs>
    <style>
      .cls-1 {
        fill: #b7dc50;
      }

      .cls-1, .cls-2, .cls-3, .cls-4, .cls-5, .cls-6, .cls-7, .cls-8, .cls-9, .cls-10, .cls-11, .cls-12, .cls-13, .cls-14, .cls-15, .cls-16, .cls-17, .cls-18, .cls-19, .cls-20, .cls-21, .cls-22, .cls-23, .cls-24, .cls-25, .cls-26 {
        stroke-width: 0px;
      }

      .cls-2 {
        opacity: .48;
      }

      .cls-2, .cls-4 {
        fill: #097064;
      }

      .cls-3 {
        fill: #144a54;
      }

      .cls-5 {
        fill: #66676b;
      }

      .cls-6 {
        opacity: .08;
      }

      .cls-6, .cls-25 {
        fill: #fff;
      }

      .cls-7 {
        fill: none;
      }

      .cls-8 {
        fill: #0c877e;
      }

      .cls-9 {
        fill: #0d8476;
      }

      .cls-10 {
        fill: #1ed1c0;
      }

      .cls-11 {
        fill: #7d7e82;
      }

      .cls-12 {
        fill: #1e968d;
      }

      .cls-13 {
        fill: #333532;
      }

      .cls-14 {
        fill: #2bed97;
      }

      .cls-15 {
        fill: #1fb2a7;
      }

      .cls-27 {
        clip-path: url(#clippath);
      }

      .cls-16 {
        fill: #118274;
      }

      .cls-17 {
        fill: #0b7c71;
      }

      .cls-18 {
        fill: #0a7064;
      }

      .cls-19 {
        fill: #40423f;
      }

      .cls-20 {
        fill: #303a6b;
      }

      .cls-21 {
        fill: #747579;
      }

      .cls-22 {
        fill: #36353a;
      }

      .cls-23 {
        fill: #000;
        opacity: .1;
      }

      .cls-24 {
        fill: #29282d;
      }

      .cls-25 {
        opacity: .05;
      }

      .cls-26 {
        fill: #098e84;
      }
    </style>
    <clipPath id="clippath">
      <rect class="cls-7" x="153" y="150.64" width="2500" height="1600"/>
    </clipPath>
  </defs>
  <g class="cls-27">
    <g>
      <g>
        <g>
          <path class="cls-22" d="M1851.95,1618.53c0,34.48-188.92,62.43-421.96,62.43-79.33,0-153.55-3.24-216.94-8.87-122.83-10.92-205.02-30.82-205.02-53.56,0-34.47,188.92-62.42,421.96-62.42,11.07,0,22.03.06,32.89.19,217.67,2.48,389.07,29.4,389.07,62.23Z"/>
          <path class="cls-24" d="M1851.95,1618.53c0,34.48-188.92,62.43-421.96,62.43-79.33,0-153.55-3.24-216.94-8.87-19.49-4.65-38.87-9.85-58.11-15.64,88.76-10.52,181.15,8.52,266.74-17.28,15.21-4.59,30.45-10.84,41.7-22.07,1.35-1.35,2.63-2.78,3.82-4.27,10.25-12.83,15.3-32.72,4.69-46.89-2.46-3.28-7.69-6.28-9.01-9.64,217.67,2.48,389.07,29.4,389.07,62.23Z"/>
        </g>
        <g>
          <path class="cls-21" d="M1927.61,1818.77l-884.63,8.27-122.9,1.15,88.78-214.44c0,30.02,188.91,54.36,421.96,54.36,90.25,0,173.89-3.65,242.49-9.87,108.55-9.83,179.47-26.1,179.47-44.49l74.83,205.02Z"/>
          <path class="cls-5" d="M1927.61,1818.77l-884.63,8.27c85.69-20.88,176.95-16.58,265.89-15.09,105.04,1.77,215.31-2.23,306.34-54.67,20.58-11.85,40.41-26.69,51.9-47.46,8.59-15.54,11.49-35,6.2-51.58,108.55-9.83,179.47-26.1,179.47-44.49l74.83,205.02Z"/>
          <path class="cls-11" d="M1067.61,1706.15c30.65-15.55,66.59-16.01,100.89-13.94,82.66,4.98,166.19,22.62,247.46,6.75,13.57-2.65,27.23-6.24,41.01-5.18,13.79,1.07,28.13,7.94,33.66,20.62,7.57,17.38-4.22,37.42-18.95,49.34-22.97,18.6-53.11,26.3-82.62,27.89s-58.99-2.41-88.46-4.66c-80.92-6.18-162.83.91-241.48,20.91-10.93,2.78-25.07,6.65-35.06-.81-7.79-5.82-9.67-14.17-6.66-22.85,3.26-9.39,2.92-19.4,6.17-28.85,3.43-9.98,9.01-19.16,15.9-27.12,7.84-9.07,17.45-16.68,28.15-22.1Z"/>
        </g>
      </g>
      <g>
        <g>
          <g>
            <g>
              <polygon class="cls-19" points="1650.14 1303.82 1543.01 1336.58 1491.03 1166.57 1598.15 1133.81 1608.03 1166.12 1629.7 1237.01 1650.14 1303.82"/>
              <path class="cls-13" d="M1629.7,1237.01c-1.92,1.33-4.01,2.45-6.13,3.37-6.22,2.7-12.97,3.95-19.55,5.62-21.17,5.37-41.16,15.33-58.2,28.99,3.91-12.9,11.36-24.71,21.33-33.78,6.23-5.68,14.27-12.69,11.78-20.75-2.16-6.96-10.87-9.2-18.15-9.3-9.87-.14-19.75,1.58-29.01,4.97-2.09.76-4.16,1.61-6.17,2.54-.89.41-3.59,2.36-4.09,1.38-.89-1.73,4.67-7.48,5.63-8.73,4.8-6.22,9.9-12.24,15.45-17.82,10.99-11.07,23.9-20.47,38.76-25.56,8.55-2.93,18.16-4.26,26.7-1.81l21.67,70.9Z"/>
            </g>
            <g>
              <path class="cls-17" d="M1684.36,1199.04c-.18,8.16-.69,16.41-1.49,24.69-2.23,23.16-6.74,46.72-12.86,70.13-35.06,134.14-122.95,263.49-138.01,285.01-1.44,2.06-2.21,3.13-2.21,3.13-7.59,6.15-14.04,10.97-19.51,14.69-38.43,26.08-29.06-1.9-29.06-1.9l3.36-125.86.98-36.52,2.82-105.45c25.54-40.25,62.82-68.95,98.04-88.81,7.63-4.32,15.18-8.2,22.48-11.71,41.61-19.99,75.46-27.4,75.46-27.4Z"/>
              <path class="cls-4" d="M1684.36,1199.04c-.18,8.16-.69,16.41-1.49,24.69-2.23,23.16-6.74,46.72-12.86,70.13-16.22,11.66-35.64,18.29-53.03,28.28-25.18,14.44-46.15,36.13-59.72,61.79-.21-1.22,2.16-5.01,1.96-6.22-16.11,29.45-21.78,63.51-23.71,97.03-1.93,33.52-.37,67.2-3.2,100.66-.1,1.16-.2,2.32-.31,3.48-1.44,2.06-2.21,3.13-2.21,3.13-7.59,6.15-14.04,10.97-19.51,14.69-38.43,26.08-29.06-1.9-29.06-1.9l3.36-125.86c1.33.61,2.77.96,4.24.96,6.92.01,12.81-5.66,15.41-12.08,2.6-6.43,2.66-13.55,2.97-20.47,3.29-71.4,40.12-140.54,97.54-183.1,6.13-4.55,13.24-10.36,12.39-17.95-.5-4.53-3.96-8.02-8.22-9.84,41.61-19.99,75.46-27.4,75.46-27.4Z"/>
              <path class="cls-10" d="M1682.87,1223.73c-2.01,20.87-5.87,42.06-11.09,63.18-.01,0-.01,0-.01.02-36.95,149.4-141.97,295.06-141.97,295.06-7.59,6.15-14.04,10.97-19.51,14.69l4.01-150.06,2.77-103.83c43.95-69.29,122.73-104.33,165.81-119.06Z"/>
              <path class="cls-26" d="M1671.77,1286.93c-36.95,149.4-141.97,295.06-141.97,295.06-7.59,6.15-14.04,10.97-19.51,14.69l4.01-150.06c1.93,12.35,4.35,24.61,7.25,36.76,1.96,8.21,5.66,17.85,13.96,19.35,6.96,1.27,13.25-4.04,18.22-9.06,2.21-2.23,4.39-4.48,6.54-6.74,8.86-9.34,17.33-19.06,25.38-29.11,7.98-9.99,15.56-20.32,22.68-30.93,7.17-10.7,13.91-21.69,20.17-32.95,6.26-11.25,12.06-22.76,17.36-34.5,5.29-11.7,10.09-23.61,14.39-35.71,2.14-6.02,4.15-12.09,6.03-18.2.95-3.08,1.87-6.16,2.75-9.26.8-2.81,1.19-6.33,2.51-8.93.07-.14.15-.27.23-.39Z"/>
              <path class="cls-15" d="M1544.18,1351.12c16.8-34.89,49.05-61.98,86.31-72.5,3.67-1.04,7.82-1.87,11.15,0,5.39,3.03,5.19,10.76,4.01,16.83-10.15,52.56-38.71,99.55-68.64,143.94-4.28,6.35-8.72,12.8-14.85,17.4-3.71,2.78-8.12,4.78-12.74,5.38-2.81.37-6.44.69-8.63-1.5-2.58-2.58-3.38-7.3-4.37-10.66-1.33-4.5-2.43-9.08-3.28-13.69-1.71-9.19-2.48-18.56-2.33-27.91.15-9.35,1.24-18.69,3.24-27.82,2.01-9.13,4.94-18.06,8.79-26.58.44-.97.88-1.93,1.34-2.88Z"/>
              <path class="cls-9" d="M1577.25,1254.57c-27.94,25.49-60.56,49.25-73.4,84.82-7.79,21.59-7.28,45.14-7.11,68.09.03,4.92.03,9.93-1.52,14.59-1.55,4.66-4.95,8.98-9.66,10.34h-.01l2.82-105.45c25.54-40.25,62.82-68.95,98.04-88.81.65,5.93-4.39,12.07-9.16,16.43Z"/>
            </g>
          </g>
          <g>
            <g>
              <polygon class="cls-19" points="1373.85 1159.22 1356.82 1214.91 1331.22 1298.65 1321.87 1329.23 1214.74 1296.47 1266.72 1126.46 1373.85 1159.22"/>
              <path class="cls-13" d="M1356.82,1214.91l-25.61,83.74c-3.6-1.19-6.83-4.11-9.67-6.82-22.47-21.55-48.08-39.82-75.77-54.06-4.62-2.37-10.15-6.76-8.04-11.51,1.63-3.66,6.6-4.07,10.59-3.68,12.75,1.23,25.25,5.03,36.54,11.09,6.38,3.44,14.88,7.39,20.05,2.33,5.1-4.99,1.49-13.6-2.8-19.28-6.16-8.18-13.38-15.57-21.38-21.97-2.97-2.38-6.41-4.32-8.47-7.61-1-1.6-2.71-5.03-.4-6.29,1.44-.8,3.96-.2,5.51-.1,2.21.14,4.42.33,6.61.58,4.4.51,8.77,1.23,13.1,2.17,17.47,3.81,34.2,11.16,48.69,21.66,3.97,2.87,7.84,6.08,11.06,9.77Z"/>
            </g>
            <g>
              <path class="cls-17" d="M1350.13,1596.68c-5.48-3.72-11.92-8.53-19.5-14.69,0,0-2.55-3.54-6.99-10.07-28.12-41.34-132.05-202.69-146.08-348.19-.8-8.28-1.31-16.53-1.5-24.69,0,0,52.32,11.45,106.82,44.27,32.5,19.57,65.77,46.76,89.17,83.65l7.15,267.82s9.37,27.98-29.06,1.9Z"/>
              <path class="cls-9" d="M1205.62,1219.54c5.15.16,10.08,2.02,14.83,4.04,38.04,16.15,70.54,43.07,99.81,72.24,6.4,6.38,12.76,13,16.99,20.98,4.23,7.98,6.12,17.62,3.16,26.15.15-.44-3.07-3.55-3.47-4.02-1.23-1.4-2.47-2.78-3.72-4.16-2.47-2.72-4.99-5.39-7.55-8.02-5.15-5.3-10.48-10.42-15.96-15.37-10.91-9.83-22.47-18.95-34.56-27.29-12.17-8.39-24.88-15.99-38.03-22.72-6.54-3.35-13.18-6.48-19.92-9.4-6.49-2.81-13.27-5.01-19.71-7.92-4.38-1.98-7.72-4.83-7.83-9.93-.16-7.21,4.06-12.56,11.1-14.13,1.6-.36,3.25-.5,4.88-.45Z"/>
              <path class="cls-10" d="M1350.13,1596.68c-5.48-3.72-11.92-8.53-19.5-14.69,0,0-36.44-50.53-73.94-122.59-5.04-9.68-10.09-19.76-15.09-30.15-29.84-62.14-57.31-135.65-64.04-205.52,40.49,13.85,112.51,45.63,157.5,106.93,2.89,3.93,5.66,7.97,8.3,12.14l.91,33.94,5.86,219.95Z"/>
              <path class="cls-17" d="M1274.63,1383.75c-15.77,0-28.59-12.83-28.59-28.59s12.83-28.59,28.59-28.59,28.59,12.83,28.59,28.59-12.83,28.59-28.59,28.59ZM1274.63,1338.85c-8.99,0-16.31,7.32-16.31,16.31s7.32,16.31,16.31,16.31,16.31-7.32,16.31-16.31-7.32-16.31-16.31-16.31Z"/>
              <path class="cls-4" d="M1350.13,1596.68c-5.48-3.72-11.92-8.53-19.5-14.69,0,0-2.55-3.54-6.99-10.07-.86-10.44-.4-21.03.23-31.51,2.84-47.04,7.94-94.84,17.6-140.99.09,3.42,2.79,6.84,6.23,7.74,4.44,1.16,9.24-1.11,12.2-4.62,2.96-3.5,4.39-8.03,5.39-12.51,6.67-30-3.44-61.86-20.95-87.11-16.33-23.56-38.58-42.25-61.47-59.62,32.5,19.57,65.77,46.76,89.17,83.65l7.15,267.82s9.37,27.98-29.06,1.9Z"/>
              <path class="cls-26" d="M1350.13,1596.68c-5.48-3.72-11.92-8.53-19.5-14.69,0,0-36.44-50.53-73.94-122.59,5.42,1.9,11.18,2.85,16.89,2.73,16.81-.36,32.77-9.07,44.11-21.48,11.34-12.41,18.4-28.23,22.65-44.5,1.67-6.39,2.93-12.88,3.93-19.41l5.86,219.95Z"/>
              <path class="cls-4" d="M1342.08,1396.52c-.21.97-.41,1.93-.61,2.9-.03-.99.16-1.97.61-2.9Z"/>
              <path class="cls-25" d="M1311.29,1378.7c2.98-24.16-5.91-49.04-21.72-67.56-15.81-18.52-38.05-30.92-61.58-37.19-5.59-1.49-11.9-2.55-16.85.43-7.98,4.81-7.38,16.49-4.98,25.49,4.46,16.74,11.62,32.62,18.75,48.41,5.33,11.81,10.67,23.63,16,35.44,2.68,5.93,5.35,11.86,8.03,17.79,2.59,5.75,4.94,11.71,7.97,17.24,4.13,7.55,11.11,15.4,20.54,11.99,9.04-3.27,16.74-12.52,21.93-20.25,5.7-8.5,9.63-18.21,11.39-28.3.2-1.16.38-2.33.52-3.5Z"/>
            </g>
          </g>
        </g>
        <g>
          <g>
            <path class="cls-19" d="M1860.68,1218.42l-36.02,12.27-16.5,5.61c-12.87-35.75-87.48-100.31-139.57-142.18-22.01-17.69-40-31.34-47.6-37.04-2.52-1.89-3.9-2.91-3.9-2.91v-149.73c95.28,22.12,186.67,192.55,224.85,272.64,11.98,25.11,18.72,41.33,18.72,41.33Z"/>
            <path class="cls-13" d="M1860.68,1218.42l-36.02,12.27c-4.45-.14-8.83-1.23-12.51-3.65,5.86-3.36,12.61-9.4,14.8-16.02-3.99-.36-9.02.76-12.21-2.35-4.28-4.17-2-11.49,1.73-15.17,3.26-3.2,7.48-5.77,11.29-8.25,4.06-2.65,8.24-5.1,12.54-7.33.54-.28,1.1-.56,1.66-.84,11.98,25.11,18.72,41.33,18.72,41.33Z"/>
            <path class="cls-13" d="M1672.77,1089.76c-1.17,1.71-2.58,3.17-4.17,4.37-22.01-17.69-40-31.34-47.6-37.04-.19-11.75,2.4-23.43,4.57-35.02,4.63-24.78,7.33-50.6.95-74.98,5.12,11.43,11.89,22.1,20.04,31.59.14-1.26.29-2.51.46-3.76,1.37-10.04,3.83-19.93,7.29-29.45.53-1.46.99-3.09,2.59-1.68,1.31,1.16,1.8,3.18,2.08,4.82.88,5.27,1.59,10.56,2.39,15.85,1.6,10.61,3.21,21.22,4.81,31.83,1.59,10.55,3.19,21.11,4.78,31.67,1.61,10.61,3.21,21.22,4.81,31.83,1.54,10.18,2.84,21.48-2.99,29.97Z"/>
            <path class="cls-10" d="M1910.69,1325.58c-2.65,3.21-8.01,2.7-11.23.07-3.21-2.64-4.82-6.7-6.31-10.58-3.81-9.89-7.74-19.81-13.39-28.78-1.27-2.02-2.64-3.99-4.1-5.88-5.04-6.54-11.19-12.22-18.52-15.92-5.15-2.59-12.09-3.73-16.59-.78-.9.59-1.71,1.35-2.38,2.3-2.46,3.47-2.09,8.19-.98,12.3,1.12,4.11,2.87,8.13,2.85,12.39-.02,4.26-2.55,8.94-6.75,9.56-2.3.33-4.58-.59-6.67-1.59-5.7-2.73-11-6.21-15.79-10.34-8.61-7.4-15.52-16.82-19.85-27.33-2.79-6.74-4.45-14.76-.89-21.13,2.82-5.05,8.28-7.93,13.51-10.41.89-.42,1.78-.84,2.67-1.25,7.3-3.4,14.74-6.52,22.26-9.4,7.49-2.86,15.09-5.44,22.76-7.77,3.84-1.16,7.7-2.26,11.57-3.29,1.37-.36,3.8-1.52,5.19-1.16,1.42.37,3.14,2.35,4.25,3.28,1.04.87,2.07,1.76,3.08,2.68,4.72,4.25,9.03,8.96,12.86,14.04,4.59,6.07,8.47,12.66,11.56,19.61,9.78,22.07,11.24,46.78,12.57,70.88.16,2.96.22,6.22-1.66,8.51Z"/>
            <g>
              <path class="cls-10" d="M1846.93,1173.25c-.09.54-.18,1.08-.29,1.61-.64,3.48-1.53,6.91-2.7,10.27-.93,2.69-2.03,5.33-3.33,7.86-1.25,2.47-2.5,5.66-5.1,6.89-1.94.94-3.74,2.15-5.7,3.07-3.68,1.73-7.61,2.94-11.62,3.67-7.92,1.44-16.17,1.06-23.97-.84-12.8-3.08-24.13-9.59-35.09-16.28-4.12-2.51-8.49-3.98-12.61-6.43-4.38-2.61-8.73-5.25-13.07-7.93-8.66-5.41-17.16-11.03-25.28-17.19-15.92-12.1-30.39-26.43-40.1-44.2-7.67-14.05-12.07-29.58-14.46-45.78-2.73-18.47-2.85-37.8-2.24-56.75,0-8.71.71-17.52,1.35-26.2.2-2.75.42-5.49.66-8.23.59-6.66,1.31-13.31,2.19-19.94.84-6.2,1.81-12.4,2.96-18.56.72-3.83,1.49-7.66,2.35-11.48.8-3.62,1.34-7.72,2.8-11.16.88-2.07,3.36-3.34,5.22-4.44,2.99-1.76,6.39-2.68,9.86-2.9,3.08-.2,6.2.16,9.12.98,7.87,2.18,14.62,7.16,20.94,12.31.38.32.78.63,1.16.96,8.17,6.68,15.96,13.76,23.4,21.19,1.64,1.63,3.27,3.28,4.88,4.95,2.17,2.26,4.32,4.55,6.43,6.86,7.73,8.46,15.06,17.3,22.01,26.46,4.11,5.41,8.08,10.91,11.91,16.52,7.25,10.54,14.05,21.42,20.43,32.55,12.42,21.62,23.33,44.18,33,67.06,6.91,16.36,13.34,33.18,15.35,50.82.92,8.06.84,16.27-.47,24.29Z"/>
              <g>
                <path class="cls-17" d="M1799.06,1031.09l-23.81,91.03-1.85,7.07c-3.86-3.67-7.82-7.19-11.83-10.67-3.88-3.37-7.79-6.68-11.7-10.02l2.29-8.75,21.91-83.8,4.56-17.41c7.25,10.54,14.05,21.42,20.43,32.55Z"/>
                <path class="cls-17" d="M1766.71,982.02l-2.52,9.61-24.72,94.51-2.32,8.87c-.74-.93-1.49-1.85-2.24-2.74.02-.02.05-.04.07-.06-.18-.17-.37-.35-.56-.52-4.62-5.38-9.55-10.07-14.88-15.1-1.39-1.31-2.75-2.65-4.03-4.07-.14-.15-.58-.69-1.09-1.31l3-11.44,26.77-102.32.5-1.9c7.73,8.46,15.06,17.3,22.01,26.46Z"/>
                <path class="cls-17" d="M1683.61,1023.42l26.39-100.86c8.17,6.69,15.96,13.77,23.39,21.19l-29.52,112.86c-7.16-10.82-13.19-22.34-20.26-33.19Z"/>
              </g>
              <path class="cls-8" d="M1846.64,1174.86c-.64,3.48-1.53,6.91-2.7,10.27-9.56-4.42-18.56-10.27-27.12-16.31-20.52-14.48-39.87-30.41-57.89-47.63-43.35-41.4-79.13-90.27-105.54-144.4.59-6.66,1.31-13.31,2.19-19.94,8.88,19.9,19.03,39.13,30.37,57.57,6.53,10.65,13.48,21.03,20.79,31.14,3.48,4.81,7.03,9.54,10.68,14.22,7.03,9.04,14.39,17.83,22.04,26.36,4.15,4.62,8.37,9.15,12.68,13.61,4.45,4.6,8.98,9.1,13.61,13.53,3.12,2.99,6.28,5.93,9.48,8.84,15.02,13.65,30.91,26.41,47.6,38.18,7.59,5.36,15.52,10.56,23.8,14.57Z"/>
              <rect class="cls-17" x="1655.6" y="1122.09" width="155.57" height="14.21" transform="translate(2239.2 3135.16) rotate(-137.23)"/>
            </g>
            <path class="cls-2" d="M1846.93,1173.25c-.09.54-.18,1.08-.29,1.61-.64,3.48-1.53,6.91-2.7,10.27-.93,2.69-2.03,5.33-3.33,7.86-1.25,2.47-2.5,5.66-5.1,6.89-1.94.94-3.74,2.15-5.7,3.07-3.68,1.73-7.61,2.94-11.62,3.67-7.92,1.44-16.17,1.06-23.97-.84-12.8-3.08-24.13-9.59-35.09-16.28-4.12-2.51-8.49-3.98-12.61-6.43-4.38-2.61-8.73-5.25-13.07-7.93-8.66-5.41-17.16-11.03-25.28-17.19-15.92-12.1-30.39-26.43-40.1-44.2-7.67-14.05-12.07-29.58-14.46-45.78,9.23,24.09,27.47,44.72,50.45,56.51,6.72,3.44,14.09,6.15,21.53,7.19,6.09.87,12.24.63,18.12-1.24l1.08-.36c5.34-1.89,10.04-4.99,14.13-8.88.91-.85,1.78-1.75,2.63-2.68,1.5-1.65,2.9-3.41,4.2-5.25,3.2-4.47,5.82-9.41,7.86-14.44,10.66-26.11,9.1-55.98.44-82.89-.34-1.08-.7-2.16-1.07-3.23-2.49-7.2-5.46-14.24-8.8-21.09-1.21-2.51-2.47-4.99-3.78-7.44-4.45-8.35-9.39-16.45-14.62-24.34-.53-.8-1.06-1.6-1.6-2.39-.76-1.14-1.53-2.27-2.31-3.39-1.15-1.68-2.87-3.47-3.63-5.38,2.17,2.26,4.32,4.55,6.43,6.86,7.73,8.46,15.06,17.3,22.01,26.46,4.11,5.41,8.08,10.91,11.91,16.52,7.25,10.54,14.05,21.42,20.43,32.55,12.42,21.62,23.33,44.18,33,67.06,6.91,16.36,13.34,33.18,15.35,50.82.92,8.06.84,16.27-.47,24.29Z"/>
            <path class="cls-26" d="M1838.17,1266c-2.46,3.47-2.09,8.19-.98,12.3,1.12,4.11,2.87,8.13,2.85,12.39-.02,4.26-2.55,8.94-6.75,9.56-2.3.33-4.58-.59-6.67-1.59-5.7-2.73-11-6.21-15.79-10.34,2.28-.33,4.56-1.5,6.19-3.13,3.22-3.21,4.74-7.68,6.61-11.82,1.87-4.15,4.54-8.37,8.81-9.91,2.66-.96,5.45-.72,8.1.24-.9.59-1.71,1.35-2.38,2.3Z"/>
            <path class="cls-26" d="M1910.69,1325.58c-2.65,3.21-8.01,2.7-11.23.07-3.21-2.64-4.82-6.7-6.31-10.58-3.81-9.89-7.74-19.81-13.39-28.78-1.27-2.02-2.64-3.99-4.1-5.88,6.41-1.89,12.26-6.52,15.36-12.53,5.48-10.62,3.7-23.81-1.7-34.47-3.25-6.42-7.68-12.16-12.48-17.5-1.01-1.12-2.14-2.27-1.48-3.36,4.72,4.25,9.03,8.96,12.86,14.04,4.59,6.07,8.47,12.66,11.56,19.61,9.78,22.07,11.24,46.78,12.57,70.88.16,2.96.22,6.22-1.66,8.51Z"/>
            <ellipse class="cls-6" cx="1714.44" cy="1028.46" rx="36.1" ry="73.61" transform="translate(-142.59 287.87) rotate(-9.22)"/>
          </g>
          <g>
            <path class="cls-19" d="M1243.31,891.38v149.73s-21,15.51-49.15,38.06c-33.04,26.48-75.92,62.65-106.25,94.85-17.54,18.63-30.88,35.93-35.68,49.23l-22.13-7.53-30.38-10.35s118.45-284.92,243.59-313.97Z"/>
            <path class="cls-13" d="M1087.91,1174.01c-17.54,18.63-30.88,35.93-35.68,49.23l-22.13-7.53c-6.2-5.58-12.15-11.43-17.8-17.55,8.72,2.41,17.77,3.63,26.82,3.61.44-3.79-2.72-7.08-6.09-8.84-3.38-1.76-7.22-2.64-10.31-4.88-1.93-1.41-3.49-3.64-3.85-6.02-.4-2.69.65-3.31,3.03-2.59,2.46.74,4.98,1.2,7.53,1.39,5.09.37,10.2-.23,15.15-1.34,8.51-1.89,16.66-5.16,25.12-7.25,6.08-1.51,13.62-1.81,18.22,1.79Z"/>
            <path class="cls-10" d="M1069.44,1247.93c-6.74,16.35-19.7,30.03-35.65,37.67-2.09,1-4.37,1.92-6.66,1.59-4.21-.62-6.74-5.31-6.76-9.56-.01-2.15.43-4.25,1.02-6.31.57-2.03,1.28-4.04,1.83-6.07,1.12-4.11,1.49-8.83-.97-12.3-2.03-2.86-5.28-4.01-8.78-4.05-3.44-.03-7.12.99-10.18,2.53-9.47,4.77-16.98,12.83-22.62,21.8-5.64,8.97-9.58,18.89-13.39,28.78-1.5,3.88-3.11,7.94-6.32,10.58-3.21,2.63-8.57,3.14-11.22-.07-1.89-2.29-1.82-5.56-1.66-8.51.57-10.45,1.17-21.01,2.47-31.42,1.69-13.61,4.57-26.96,10.1-39.46,3.08-6.95,6.97-13.54,11.56-19.61,4.65-6.15,10-11.79,15.93-16.72,1.12-.93,2.84-2.91,4.26-3.28,1.38-.36,3.82.8,5.18,1.16,3.88,1.03,7.73,2.13,11.57,3.29,7.67,2.33,15.27,4.93,22.76,7.77,1.32.5,2.64,1.02,3.95,1.54,6.18,2.45,12.29,5.07,18.32,7.86.89.41,1.78.83,2.67,1.25,5.23,2.48,10.68,5.37,13.5,10.42,3.57,6.36,1.9,14.38-.88,21.12Z"/>
            <path class="cls-13" d="M1243.31,977.51v63.6s-21,15.51-49.15,38.06c-2.67-1.93-4.9-4.39-6.41-7.31-3.27-6.3-3-13.81-2.22-20.87,2.48-22.43,9.32-44.13,13.51-66.31,4.19-22.18,5.59-45.73-2.53-66.78,11.42,10.26,18.81,24.89,20.3,40.17,3.94-2.99,5.26-8.23,6.31-13.07,2.05-9.36,4.1-18.71,6.15-28.08.57-2.64,1.36-4.92,4.23-2.74,2.75,2.1,2.76,5.32,3.14,8.46,1.03,8.5,2.07,17,3.1,25.5,1.19,9.78,2.38,19.57,3.57,29.36Z"/>
            <g>
              <path class="cls-10" d="M1192.31,1100.69c-9.71,17.77-24.18,32.1-40.1,44.2-8.1,6.15-16.62,11.79-25.27,17.18-4.34,2.69-8.69,5.33-13.07,7.93-4.12,2.46-8.49,3.94-12.61,6.43-10.96,6.68-22.29,13.2-35.09,16.29-7.81,1.89-16.05,2.27-23.97.83-4.02-.73-7.94-1.94-11.63-3.66-1.96-.93-3.75-2.14-5.69-3.08-2.6-1.24-3.85-4.43-5.1-6.89-1.3-2.54-2.4-5.18-3.33-7.86-.31-.89-.6-1.78-.87-2.67-.11-.38-.22-.76-.33-1.14-.49-1.71-.9-3.43-1.25-5.17-.09-.43-.17-.86-.25-1.3-.11-.53-.2-1.07-.29-1.61-1.31-8.02-1.4-16.23-.47-24.29,2.01-17.63,8.42-34.46,15.35-50.81,1.41-3.33,2.84-6.65,4.31-9.96,8.57-19.47,18.07-38.64,28.69-57.11,6.38-11.12,13.17-22,20.42-32.55,3.84-5.61,7.81-11.11,11.92-16.52,6.94-9.15,14.27-17.99,22.01-26.46,3.68-4.04,7.45-7.97,11.31-11.81,7.44-7.43,15.23-14.51,23.4-21.19.38-.33.77-.64,1.16-.96,2.79-2.26,5.63-4.49,8.64-6.46,3.83-2.52,7.88-4.63,12.29-5.84,2.92-.82,6.05-1.17,9.13-.98,3.47.22,6.87,1.14,9.86,2.9,1.86,1.1,4.34,2.37,5.22,4.44.61,1.44,1.06,3.01,1.43,4.6.52,2.21.9,4.47,1.36,6.56.86,3.82,1.64,7.65,2.36,11.49,1.15,6.16,2.12,12.35,2.96,18.55.88,6.63,1.6,13.29,2.19,19.94.24,2.75.46,5.49.66,8.23.64,8.68,1.34,17.48,1.34,26.2,1.15,35.57-.27,72.46-16.7,102.53Z"/>
              <g>
                <path class="cls-17" d="M1110.54,1095.43l-28.76-109.96c-7.25,10.54-14.04,21.43-20.43,32.55l25.66,98.11c7.57-7.2,15.59-13.91,23.53-20.7Z"/>
                <path class="cls-17" d="M1125.49,1079.21s-.05-.04-.08-.06c.19-.17.37-.35.56-.52,4.62-5.37,9.56-10.07,14.88-15.09,1.39-1.31,2.75-2.65,4.04-4.07.13-.15.58-.69,1.08-1.31l-30.26-115.66c-7.74,8.47-15.06,17.31-22.02,26.47l29.55,112.99c.74-.93,1.49-1.85,2.24-2.74Z"/>
                <path class="cls-17" d="M1176.8,1010.35l-26.39-100.86c-8.17,6.69-15.96,13.77-23.39,21.19l29.52,112.86c7.16-10.82,13.19-22.34,20.26-33.19Z"/>
              </g>
              <path class="cls-8" d="M1207.01,963.73c-2.73,5.6-5.57,11.14-8.49,16.63-27.41,51.28-63.4,97.43-106.36,136.44-15.33,13.94-31.55,26.95-48.58,38.97-8.55,6.03-17.55,11.89-27.12,16.31-.31-.89-.6-1.78-.87-2.67-.11-.38-.22-.76-.33-1.14-.49-1.71-.9-3.43-1.25-5.17-.09-.43-.17-.86-.25-1.3,8.28-4.01,16.21-9.21,23.8-14.57,14.07-9.92,27.56-20.53,40.44-31.8,2.41-2.1,4.8-4.23,7.15-6.37,7.94-7.21,15.65-14.67,23.09-22.37,4.31-4.46,8.53-8.99,12.68-13.61,7.64-8.52,15-17.31,22.04-26.36,3.65-4.68,7.2-9.42,10.67-14.23,7.32-10.11,14.27-20.49,20.8-31.14,9.75-15.86,18.62-32.29,26.57-49.25,1.29-2.76,2.56-5.52,3.81-8.31.88,6.63,1.6,13.29,2.19,19.94Z"/>
              <rect class="cls-17" x="1043.73" y="1115.94" width="155.57" height="14.21" transform="translate(-464.38 1060.1) rotate(-42.77)"/>
            </g>
            <path class="cls-2" d="M1192.31,1100.69c-9.71,17.77-24.18,32.1-40.1,44.2-8.1,6.15-16.62,11.79-25.27,17.18-4.34,2.69-8.69,5.33-13.07,7.93-4.12,2.46-8.49,3.94-12.61,6.43-10.96,6.68-22.29,13.2-35.09,16.29-7.81,1.89-16.05,2.27-23.97.83-4.02-.73-7.94-1.94-11.63-3.66-1.96-.93-3.75-2.14-5.69-3.08-2.6-1.24-3.85-4.43-5.1-6.89-1.3-2.54-2.4-5.18-3.33-7.86-.31-.89-.6-1.78-.87-2.67-.11-.38-.22-.76-.33-1.14-.49-1.71-.9-3.43-1.25-5.17-.09-.43-.17-.86-.25-1.3-.11-.53-.2-1.07-.29-1.61-1.31-8.02-1.4-16.23-.47-24.29,2.01-17.63,8.42-34.46,15.35-50.81,1.41-3.33,2.84-6.65,4.31-9.96,4.37,12.62,12.81,23.84,23.89,31.28,6.48,4.36,13.82,7.39,21.46,9.01,4.65.99,9.4,1.45,14.15,1.37,5.38-.07,10.75-.85,15.92-2.36,17.66-5.14,32.12-17.89,44.05-31.89,1.01-1.18,2-2.38,2.98-3.58,7.89-9.73,14.84-20.21,20.78-31.23,5.94-11.03,10.88-22.6,14.76-34.51,3.5-10.73,6.13-21.73,7.87-32.87.2-1.28.39-2.57.57-3.85,1.12-8.09,1.77-16.25,1.93-24.41.08-4.32.03-8.63-.16-12.95-.27-6.27-.84-12.54-1.7-18.76-.44-3.1-1.28-6.25-1.48-9.37-.08-1.2.15-2.52.47-3.84.52,2.21.9,4.47,1.36,6.56.86,3.82,1.64,7.65,2.36,11.49,1.15,6.16,2.12,12.35,2.96,18.55.88,6.63,1.6,13.29,2.19,19.94.24,2.75.46,5.49.66,8.23.64,8.68,1.34,17.48,1.34,26.2,1.15,35.57-.27,72.46-16.7,102.53Z"/>
            <path class="cls-26" d="M1005.32,1247.05c2.71.06,5.65.66,8.14,1.84-3.44-.03-7.12.99-10.18,2.53-9.47,4.77-16.98,12.83-22.62,21.8-5.64,8.97-9.58,18.89-13.39,28.78-1.5,3.88-3.11,7.94-6.32,10.58-3.21,2.63-8.57,3.14-11.22-.07-1.89-2.29-1.82-5.56-1.66-8.51.57-10.45,1.17-21.01,2.47-31.42.83.77,1.82,1.36,2.89,1.68,4.24,1.24,8.83-.76,12.14-3.68,3.31-2.93,5.71-6.7,8.65-10,7.76-8.7,19.44-13.79,31.1-13.53Z"/>
            <path class="cls-26" d="M1069.44,1247.93c-6.74,16.35-19.7,30.03-35.65,37.67-2.09,1-4.37,1.92-6.66,1.59-4.21-.62-6.74-5.31-6.76-9.56-.01-2.15.43-4.25,1.02-6.31,1.13.31,2.36.1,3.52-.01,1.01-.1,2.01-.15,3.03-.15,5.12,0,8.29-2.9,11.5-6.64,7.34-8.57,15.09-18.18,15.07-29.46,0-8.52-4.67-16.56-11.03-22.23-2.36-2.1-4.93-3.93-7.63-5.54,6.18,2.45,12.29,5.07,18.32,7.86.89.41,1.78.83,2.67,1.25,5.23,2.48,10.68,5.37,13.5,10.42,3.57,6.36,1.9,14.38-.88,21.12Z"/>
            <ellipse class="cls-6" cx="1125.22" cy="1017.71" rx="89.31" ry="37.79" transform="translate(-318.75 1483.33) rotate(-60)"/>
          </g>
        </g>
        <g>
          <path class="cls-10" d="M1611.35,702.69c0,10.9-1.17,21.56-3.42,31.89-2.81,12.99-7.3,25.47-13.28,37.24-16.55,32.59-44.44,59.89-79.34,78.11-29.81,15.58-64.73,24.53-102.07,24.53-31.44,0-61.18-6.35-87.58-17.65-20.4-8.73-38.83-20.42-54.51-34.42-6.73-6.01-12.97-12.45-18.63-19.26-23.52-28.25-37.38-62.93-37.38-100.43,0-21.74,4.66-42.53,13.15-61.68,1.66-3.75,3.47-7.42,5.43-11.03,5.06-9.37,11.06-18.28,17.91-26.65,2.58-3.16,5.29-6.24,8.11-9.23,36.33-38.57,91.6-63.18,153.5-63.18,25.48,0,49.83,4.18,72.2,11.77,12.7,4.32,24.76,9.72,36.03,16.11,54.12,30.66,89.88,83.66,89.88,143.89Z"/>
          <path class="cls-17" d="M1607.94,734.59c-2.81,12.98-7.3,25.46-13.29,37.23l-33.35-13.2,14.54-36.74,32.09,12.71Z"/>
          <path class="cls-2" d="M1611.35,702.69c0,10.9-1.17,21.56-3.42,31.89-2.81,12.99-7.3,25.47-13.28,37.24-12.61,24.85-31.63,46.12-54.1,62.48-5.87,4.27-11.97,8.21-18.27,11.82-1.53.88-3.07,1.73-4.62,2.57-.6.32-1.12.6-1.62,1.02-.55.46-1.25.81-1.88,1.15-2.62,1.43-5.45,2.42-8.34,3.11-5.35,1.27-10.88,1.55-16.36,1.74-7.13.25-14.26.43-21.39.54-7.13.11-14.26.17-21.39.18-7.13,0-14.26-.03-21.4-.1-7.13-.07-14.26-.17-21.4-.29-3.57-.06-7.13-.12-10.7-.19-3.54-.06-7.11,0-10.64-.21-1.08-.06-2.04-.38-3.08-.64-1.31-.33-2.63-.18-3.96-.07-3.53.29-7.06.59-10.59.87-7.06.55-14.12,1.02-21.2,1.22-3.03.08-6.07.12-9.1.09-1.51-.02-3.03-.05-4.54-.1-.74-.02-1.48-.05-2.22-.09-.61-.03-1.66.12-2.21-.11-19.55-8.37-39.07-19.76-54.57-34.48,5.73,1.78,13.62.09,19.2-1.58,6.52-1.94,12.65-5.24,17.8-9.7,9.91-8.59,16.06-21.37,16.57-34.47l29.77,11.93c9.28,3.72,18.67,7.17,28.86,6.88,2.75-.08,5.5-.45,8.15-1.19,12.27-3.41,21.14-14,27.81-24.86,17.6-28.69,25.3-63.35,21.47-96.8-3.82-33.46-19.57-63.69-43.2-87.68,35.38-9.06,73.98-4.82,106.55,11.71,3.09,1.56,6.21,3.27,9.66,3.67,7.2.83,14.15-4.69,16.48-11.55,2.34-6.87.74-14.6-2.66-21-1.69-3.18-3.79-6.1-6.08-8.88,54.12,30.66,89.88,83.66,89.88,143.89Z"/>
          <path class="cls-12" d="M1557.17,702.69c0,68.92-64.44,124.79-143.92,124.79-36.81,0-70.39-11.98-95.85-31.68-29.5-22.86-48.09-56.1-48.09-93.11,0-68.92,64.44-124.79,143.93-124.79,17.48,0,34.25,2.71,49.76,7.66,54.96,17.55,94.17,63.37,94.17,117.13Z"/>
          <path class="cls-2" d="M1557.17,702.69c0,68.92-64.44,124.79-143.92,124.79-36.81,0-70.39-11.98-95.85-31.68,5.13.51,10.42-.44,14.5-3.51,5.01-3.79,7.4-11.27,4.25-16.7,13.55,12.53,31.56,19.7,49.9,21.8,18.34,2.1,37.01-.66,54.63-6.15,17.59-5.5,34.76-14.03,47.02-27.79,18.34-20.59,23.28-51.01,16.58-77.75-6.7-26.76-23.85-50.02-44.59-68.19-10.87-9.52-23.12-15.02-34.88-23.43,12.32,7.48,29.89,2.92,38.21-8.52,54.96,17.55,94.17,63.37,94.17,117.13Z"/>
          <path class="cls-3" d="M1540.24,702.69c0,60.81-56.86,110.1-126.99,110.1-37.7,0-71.57-14.25-94.83-36.87-20.01-19.45-32.17-45.11-32.17-73.24,0-60.82,56.86-110.11,127-110.11,6.57,0,13.03.43,19.33,1.27,60.96,8.07,107.66,53.73,107.66,108.84Z"/>
          <path class="cls-17" d="M1259.74,594.1c-2.83,2.99-5.53,6.07-8.11,9.23,3.1,2.96,5.03,7.14,5.03,11.76,0,8.99-7.32,16.31-16.31,16.31-2.36,0-4.61-.5-6.64-1.42-1.95,3.61-3.76,7.29-5.42,11.03,3.66,1.71,7.75,2.67,12.06,2.67,15.76,0,28.59-12.82,28.59-28.59,0-8.29-3.54-15.77-9.2-20.99Z"/>
          <g>
            <ellipse class="cls-14" cx="1360.33" cy="702.69" rx="48.75" ry="42.08"/>
            <ellipse class="cls-20" cx="1360.33" cy="702.69" rx="45.42" ry="39.2"/>
            <ellipse class="cls-14" cx="1360.33" cy="702.69" rx="37.5" ry="32.37"/>
            <ellipse class="cls-20" cx="1360.33" cy="702.69" rx="26.25" ry="22.66"/>
            <ellipse class="cls-14" cx="1360.33" cy="702.69" rx="17.08" ry="14.75"/>
          </g>
          <g>
            <ellipse class="cls-14" cx="1475.62" cy="702.69" rx="48.75" ry="42.08"/>
            <ellipse class="cls-20" cx="1475.62" cy="702.69" rx="45.42" ry="39.2"/>
            <ellipse class="cls-14" cx="1475.62" cy="702.69" rx="37.5" ry="32.37"/>
            <ellipse class="cls-20" cx="1475.62" cy="702.69" rx="26.25" ry="22.66"/>
            <ellipse class="cls-14" cx="1475.62" cy="702.69" rx="17.08" ry="14.75"/>
          </g>
          <path class="cls-23" d="M1540.24,702.69c0,60.81-56.86,110.1-126.99,110.1-37.7,0-71.57-14.25-94.83-36.87,2.02.53,4.19,2.38,5.96,3.44,8.92,5.27,18.73,8.97,28.86,11.1,10.23,2.15,20.8,2.7,31.19,1.64,10.35-1.05,20.55-3.72,30.03-8.01,1.12-.5,2.22-1.03,3.32-1.58,34.86-17.52,57.47-56.01,58.04-95.03.52-35.51-16.43-70.34-43.25-93.64,60.96,8.07,107.66,53.73,107.66,108.84Z"/>
          <path class="cls-6" d="M1485.66,551.44c-1.92,7.5-9.27,12.58-16.82,14.28-7.55,1.7-15.41.69-23.12-.02-44.43-4.07-91.06,2.82-128.64,26.88-37.58,24.05-64.43,67.08-62.02,111.63,1.03,18.97,7.09,37.34,14.71,54.74,4.36,9.93,9.27,21.23,4.88,31.14-.51,1.16-1.14,2.26-1.88,3.28-3.19,4.45-8.16,7.35-13.37,8.78-2.31.64-4.61.91-6.89.97-23.52-28.25-37.38-62.93-37.38-100.43,0-21.74,4.66-42.53,13.15-61.68,1.66-3.75,3.47-7.42,5.43-11.03,5.06-9.37,11.06-18.28,17.91-26.65,2.58-3.16,5.29-6.24,8.11-9.23,36.33-38.57,91.6-63.18,153.5-63.18,25.48,0,49.83,4.18,72.2,11.77.84,2.81.99,5.75.22,8.75Z"/>
        </g>
        <g>
          <path class="cls-10" d="M1637.65,955.14v210.04h-.02s-47.22,12.61-90.44,40.27c-2.89,1.85-5.76,3.77-8.6,5.75-17.95,12.56-34.59,27.84-46.01,46.03h-118.24c-40.22-64.06-145.05-92.06-145.05-92.06v-223.9s-3.2-86.36,83.17-89.56h233.49s30.44,4.04,56.27,25.88c2.94,2.49,5.82,5.22,8.59,8.19,14.37,15.41,25.73,37.58,26.84,69.35Z"/>
          <g>
            <polygon class="cls-17" points="1335.41 1020.37 1229.27 1020.37 1229.27 1011.77 1326.81 1011.77 1326.81 960.71 1335.41 960.71 1335.41 1020.37"/>
            <path class="cls-17" d="M1610.81,885.79v49.45h-106.14v-8.6h97.54v-49.04c2.94,2.49,5.83,5.21,8.6,8.19Z"/>
            <circle class="cls-17" cx="1330.4" cy="948.76" r="19.55"/>
            <circle class="cls-1" cx="1330.4" cy="948.76" r="13.62"/>
            <path class="cls-17" d="M1547.19,1124.13v81.33c-2.89,1.85-5.76,3.77-8.6,5.76v-78.48h-51.06v-8.6h59.66Z"/>
            <circle class="cls-17" cx="1475.57" cy="1129.14" r="19.55"/>
            <circle class="cls-1" cx="1475.57" cy="1129.14" r="13.62"/>
          </g>
          <path class="cls-17" d="M1507.75,1039.48h-45.25v-140.39h45.25v140.39ZM1468.64,1033.34h32.96v-128.11h-32.96v128.11Z"/>
          <path class="cls-2" d="M1637.65,955.14s0,210.04-.02,210.04c0,0-47.22,12.61-90.44,40.27-2.89,1.85-5.76,3.77-8.6,5.75-17.95,12.56-34.59,27.84-46.01,46.03h-118.24c-40.22-64.06-145.05-92.06-145.05-92.06v-77.52c0,6.62,3.29,13.7,4.52,20.17.87,4.59,2.9,7.93,4.74,12.18,3.66,8.45,4.87,20.12,13.72,25.05,8.42,4.69,19.59-.4,24.87-8.47,5.28-8.07,6.19-18.13,6.96-27.75,4.36,8.97,8.96,18.13,15.8,25.51,2.99,3.22,7.11,7.29,11.39,8.7,2.86.94,7.48.38,10.23.21,12.75-.77,25.03-6.8,34.4-15.31,9.83-8.93,16.96-20.35,22.74-32.21,1.66-3.41,2.93-7.12,5.07-10.21.95-1.38,2.02-2.69,3.02-4.03-.1,26.19-.12,52.87,7.77,77.84.77,2.44,1.63,4.86,2.57,7.24,3.93,9.95,9.32,19.38,16.2,27.59,6.75,8.05,15.01,14.91,24.51,19.47,2.45,1.17,4.98,2.04,7.5,3.04.98.39,1.8,1.02,2.75,1.46,1.2.56,2.55.62,3.85.72,6.15.48,12.36.14,18.44-.9,12.19-2.09,23.85-6.95,34.2-13.69,16.8-10.94,30.18-26.49,41.09-43.32,4.72-7.29,9.01-14.86,12.85-22.66,5.44-11.06,9.96-22.57,13.53-34.36,3.57-11.8,6.19-23.88,7.83-36.1,1.63-12.21,2.27-24.56,1.88-36.88-.1-3.08-.26-6.16-.49-9.23-.1-1.3-.19-2.51-.63-3.74-1.01-2.79-.74-5.92-.95-8.84-2.21-30.97-8.29-62.51-24.24-89.56-1.22-2.07-2.51-4.11-3.85-6.09-10.62-15.84-24.83-29.13-40.99-39.18-16.32-10.13-34.67-17.02-53.63-20.04-4.74-.75-9.5-1.27-14.29-1.53-2.39-.13-4.79-.2-7.17-.21-2.18,0-4.97.59-7.08.17-.94-.19-1.39-.55-1.51-1h119.07s30.44,4.04,56.27,25.88c2.94,2.49,5.82,5.22,8.59,8.19,14.37,15.41,25.73,37.58,26.84,69.35Z"/>
          <rect class="cls-17" x="1281.31" y="1056.85" width="108.19" height="120.46"/>
          <path class="cls-6" d="M1494.11,1026.44c6.36-29.53-1.38-61.19-18.07-86.37-29.73-44.84-88.53-68.23-140.94-56.07-27.5,6.38-53.83,22.89-66.12,48.31-12.29,25.41-6.97,59.88,16.05,76.21,13.31,9.44,30.25,11.95,46.54,12.94,16.29.99,32.93.78,48.46,5.78,15.53,5,30.19,16.57,33.46,32.56,1.2,5.86.81,11.93,1.65,17.86,1.2,8.5,5.82,16.92,15.39,16.71,7.3-.16,12.19-3.55,18.43-6.9,14.72-7.91,26.78-20.12,35.03-34.62,4.68-8.22,8.13-17.15,10.12-26.4Z"/>
          <path class="cls-18" d="M1389.5,1056.85v120.46h-108.19v-14.86h.06c7.7-.24,15.04-.09,22.6-1.93,8.06-1.97,15.77-5.3,22.82-9.64,8.02-4.96,15.25-11.23,21.26-18.5,17.22-20.84,24.98-48.15,27.05-75.1,2.18-.14,4.36-.29,6.53-.43h7.87Z"/>
          <ellipse class="cls-16" cx="1320.34" cy="1098.3" rx="38.86" ry="26.82" transform="translate(-372.49 1387.94) rotate(-49.46)"/>
        </g>
      </g>
    </g>
  </g>
</svg>